<svg version="1.1" id="Layer_1" xmlns="http://www.w3.org/2000/svg" xmlns:xlink="http://www.w3.org/1999/xlink" x="0px" y="0px"
	 width="100%" viewBox="0 0 2010 2010" enable-background="new 0 0 2010 2010" xml:space="preserve">
<path fill="#00221E" opacity="1.000000" stroke="none" 
	d="
M1281.000000,2011.000000 
	C854.000000,2011.000000 427.500000,2011.000000 1.000000,2011.000000 
	C1.000000,1341.000000 1.000000,671.000000 1.000000,1.000000 
	C671.000000,1.000000 1341.000000,1.000000 2011.000000,1.000000 
	C2011.000000,671.000000 2011.000000,1341.000000 2011.000000,2011.000000 
	C1767.833374,2011.000000 1524.666626,2011.000000 1281.000000,2011.000000 
M1083.273804,1537.789062 
	C1094.551880,1519.138184 1105.819946,1500.481323 1117.109253,1481.837280 
	C1180.018433,1377.944336 1242.944824,1274.061890 1305.840942,1170.161011 
	C1342.375122,1109.808716 1378.845825,1049.418213 1415.377441,989.064270 
	C1466.346558,904.857849 1517.364258,820.680969 1568.311523,736.461365 
	C1575.782104,724.112000 1572.831421,712.362610 1560.613037,704.750732 
	C1527.603394,684.186157 1494.584839,663.636353 1461.567749,643.083923 
	C1411.287720,611.785767 1360.997559,580.503845 1310.726929,549.190735 
	C1214.100708,489.003174 1117.432373,428.882660 1020.939636,368.481873 
	C1010.306702,361.826050 1001.126709,361.811829 990.524109,368.450500 
	C896.988098,427.016479 803.298279,485.337128 709.629272,543.690613 
	C623.462341,597.370361 537.256653,650.987915 451.089752,704.667786 
	C437.971069,712.840454 435.390198,723.751099 443.316132,736.854004 
	C502.411926,834.549805 561.500977,932.249634 620.629211,1029.925781 
	C683.709351,1134.130493 746.835266,1238.307495 809.931458,1342.502441 
	C868.817505,1439.744629 927.849792,1536.898926 986.412476,1634.335449 
	C996.135864,1650.513184 1016.423035,1649.097534 1025.127319,1634.170044 
	C1043.903320,1601.969849 1063.617798,1570.317139 1083.273804,1537.789062 
z"/>
<path fill="#00EE96" opacity="1.000000" stroke="none" 
	d="
M1083.111084,1538.114746 
	C1063.617798,1570.317139 1043.903320,1601.969849 1025.127319,1634.170044 
	C1016.423035,1649.097534 996.135864,1650.513184 986.412476,1634.335449 
	C927.849792,1536.898926 868.817505,1439.744629 809.931458,1342.502441 
	C746.835266,1238.307495 683.709351,1134.130493 620.629211,1029.925781 
	C561.500977,932.249634 502.411926,834.549805 443.316132,736.854004 
	C435.390198,723.751099 437.971069,712.840454 451.089752,704.667786 
	C537.256653,650.987915 623.462341,597.370361 709.629272,543.690613 
	C803.298279,485.337128 896.988098,427.016479 990.524109,368.450500 
	C1001.126709,361.811829 1010.306702,361.826050 1020.939636,368.481873 
	C1117.432373,428.882660 1214.100708,489.003174 1310.726929,549.190735 
	C1360.997559,580.503845 1411.287720,611.785767 1461.567749,643.083923 
	C1494.584839,663.636353 1527.603394,684.186157 1560.613037,704.750732 
	C1572.831421,712.362610 1575.782104,724.112000 1568.311523,736.461365 
	C1517.364258,820.680969 1466.346558,904.857849 1415.377441,989.064270 
	C1378.845825,1049.418213 1342.375122,1109.808716 1305.840942,1170.161011 
	C1242.944824,1274.061890 1180.018433,1377.944336 1117.109253,1481.837280 
	C1105.819946,1500.481323 1094.551880,1519.138184 1083.111084,1538.114746 
M812.965332,576.446533 
	C783.693726,594.614014 754.433716,612.800354 725.147949,630.945007 
	C671.822571,663.983765 618.472412,696.982666 565.155945,730.035950 
	C555.320984,736.133118 555.521790,744.460022 565.598816,750.363708 
	C588.187805,763.597595 610.804565,776.784119 633.418091,789.976196 
	C675.513245,814.533447 717.622131,839.067139 759.710815,863.635315 
	C839.599060,910.268127 919.489868,956.896667 999.329590,1003.612488 
	C1004.366638,1006.559753 1008.765198,1006.498352 1013.775879,1003.564758 
	C1068.776611,971.364075 1123.846436,939.281189 1178.891357,907.155884 
	C1243.849243,869.245239 1308.802734,831.326843 1373.755127,793.406616 
	C1398.627075,778.885986 1423.485718,764.342590 1448.363647,749.832153 
	C1452.282104,747.546631 1454.120728,744.522156 1454.162354,739.693848 
	C1454.212769,733.837463 1450.386841,731.559082 1446.423096,729.101318 
	C1364.826416,678.506836 1283.222412,627.923828 1201.610962,577.353271 
	C1139.760010,539.027344 1077.869751,500.764801 1016.078918,462.342255 
	C1009.778442,458.424591 1004.257263,457.806122 997.690063,461.894073 
	C936.386169,500.054352 874.969543,538.033447 812.965332,576.446533 
z"/>
<path fill="#00221E" opacity="1.000000" stroke="none" 
	d="
M813.275452,576.255798 
	C874.969543,538.033447 936.386169,500.054352 997.690063,461.894073 
	C1004.257263,457.806122 1009.778442,458.424591 1016.078918,462.342255 
	C1077.869751,500.764801 1139.760010,539.027344 1201.610962,577.353271 
	C1283.222412,627.923828 1364.826416,678.506836 1446.423096,729.101318 
	C1450.386841,731.559082 1454.212769,733.837463 1454.162354,739.693848 
	C1454.120728,744.522156 1452.282104,747.546631 1448.363647,749.832153 
	C1423.485718,764.342590 1398.627075,778.885986 1373.755127,793.406616 
	C1308.802734,831.326843 1243.849243,869.245239 1178.891357,907.155884 
	C1123.846436,939.281189 1068.776611,971.364075 1013.775879,1003.564758 
	C1008.765198,1006.498352 1004.366638,1006.559753 999.329590,1003.612488 
	C919.489868,956.896667 839.599060,910.268127 759.710815,863.635315 
	C717.622131,839.067139 675.513245,814.533447 633.418091,789.976196 
	C610.804565,776.784119 588.187805,763.597595 565.598816,750.363708 
	C555.521790,744.460022 555.320984,736.133118 565.155945,730.035950 
	C618.472412,696.982666 671.822571,663.983765 725.147949,630.945007 
	C754.433716,612.800354 783.693726,594.614014 813.275452,576.255798 
z"/>
</svg>
